<?xml version="1.0" encoding="UTF-8"?>
<svg id="Layer_2" data-name="Layer 2" xmlns="http://www.w3.org/2000/svg" viewBox="0 0 28.82 28.64">
  <defs>
    <style>
      .cls-1 {
        fill: #e5ded3;
      }
    </style>
  </defs>
  <g id="Capa_1" data-name="Capa 1">
    <path class="cls-1" d="M14.41,0C6.45,0,0,6.45,0,14.41c0,7.19,5.27,13.15,12.16,14.23v-10.07h-3.66v-4.16h0s3.66,0,3.66,0v-3.17c0-3.61,2.15-5.61,5.44-5.61,1.58,0,3.23.28,3.23.28v3.55h-1.82c-.67,0-1.17.16-1.53.41-.6.43-.82,1.13-.82,1.84v2.7h4s0,0,0,0l-.45,2.9-.19,1.26h-3.36v10.07c6.89-1.08,12.16-7.04,12.16-14.23C28.82,6.45,22.37,0,14.41,0Z"/>
  </g>
</svg>