<?xml version="1.0" encoding="UTF-8"?>
<svg id="Layer_2" data-name="Layer 2" xmlns="http://www.w3.org/2000/svg" viewBox="0 0 28.82 28.82">
  <defs>
    <style>
      .cls-1 {
        fill: #e5ded3;
      }
    </style>
  </defs>
  <g id="Capa_1" data-name="Capa 1">
    <g>
      <path class="cls-1" d="M21.48,9.06c-.16-.42-.36-.73-.68-1.04s-.62-.51-1.04-.68c-.32-.12-.8-.27-1.68-.31-.96-.04-1.24-.05-3.67-.05s-2.71,0-3.67.05c-.88.04-1.36.19-1.68.31-.42.17-.73.36-1.04.68-.32.32-.51.62-.68,1.04-.12.32-.27.8-.31,1.68-.04.96-.05,1.24-.05,3.67s0,2.71.05,3.67c.04.88.19,1.36.31,1.68.16.42.36.73.68,1.04.32.32.62.51,1.04.68.32.12.8.27,1.68.31.96.04,1.24.05,3.67.05s2.71,0,3.67-.05c.88-.04,1.36-.19,1.68-.31.42-.16.73-.36,1.04-.68s.51-.62.68-1.04c.12-.32.27-.8.31-1.68.04-.96.05-1.24.05-3.67s0-2.71-.05-3.67c-.04-.89-.19-1.36-.31-1.68ZM14.41,19.07c-2.57,0-4.66-2.09-4.66-4.66s2.09-4.66,4.66-4.66,4.66,2.09,4.66,4.66-2.09,4.66-4.66,4.66Z"/>
      <path class="cls-1" d="M14.41,11.39c-1.67,0-3.02,1.35-3.02,3.02s1.35,3.02,3.02,3.02,3.02-1.35,3.02-3.02-1.35-3.02-3.02-3.02Z"/>
      <path class="cls-1" d="M14.41,0C6.45,0,0,6.45,0,14.41s6.45,14.41,14.41,14.41,14.41-6.45,14.41-14.41S22.37,0,14.41,0ZM23.43,18.15c-.04.97-.2,1.62-.42,2.2-.23.6-.54,1.1-1.05,1.61-.5.5-1.01.81-1.61,1.05-.58.22-1.24.38-2.2.42-.97.04-1.28.05-3.74.05s-2.77-.01-3.74-.05c-.97-.04-1.63-.2-2.2-.42-.6-.23-1.1-.54-1.61-1.05-.5-.51-.81-1.01-1.05-1.61-.22-.58-.38-1.24-.42-2.2-.04-.97-.05-1.28-.05-3.74s.01-2.77.05-3.74c.04-.97.2-1.63.42-2.2.23-.6.54-1.1,1.05-1.61.5-.5,1.01-.81,1.61-1.05.58-.22,1.24-.38,2.2-.42.97-.04,1.28-.06,3.74-.06s2.77.01,3.74.06c.97.04,1.63.2,2.2.42.6.23,1.1.54,1.61,1.05.5.51.81,1.01,1.05,1.61.22.58.38,1.24.42,2.2.04.97.05,1.28.05,3.74s-.01,2.77-.05,3.74Z"/>
    </g>
  </g>
</svg>