<?xml version="1.0" encoding="UTF-8"?>
<svg id="Layer_2" data-name="Layer 2" xmlns="http://www.w3.org/2000/svg" viewBox="0 0 28.82 28.82">
  <defs>
    <style>
      .cls-1 {
        fill: #e5ded3;
      }
    </style>
  </defs>
  <g id="Capa_1" data-name="Capa 1">
    <path class="cls-1" d="M14.41,0C6.45,0,0,6.45,0,14.41s6.45,14.41,14.41,14.41,14.41-6.45,14.41-14.41S22.37,0,14.41,0ZM9.65,22.28c-1.03-.01-2.05,0-3.07,0-.17,0-.21-.04-.21-.21,0-3.65,0-7.31,0-10.96,0-.15.04-.2.2-.2,1.04,0,2.08,0,3.12,0,.2,0,.23.07.23.25,0,1.82,0,3.64,0,5.46s0,3.61,0,5.41c0,.2-.05.26-.26.26ZM8.14,9.34c-1.12,0-2.04-.92-2.05-2.04,0-1.13.92-2.06,2.05-2.05,1.12,0,2.04.92,2.04,2.04,0,1.13-.92,2.06-2.05,2.06ZM23.17,22.05c0,.19-.05.24-.24.23-1.03,0-2.05,0-3.08,0-.18,0-.22-.05-.22-.22,0-1.9,0-3.79,0-5.68,0-.47-.03-.95-.17-1.41-.25-.85-.85-1.28-1.74-1.24-1.22.06-1.85.67-2,1.9-.04.3-.05.59-.05.89,0,1.84,0,3.68,0,5.53,0,.18-.05.24-.23.24-1.03,0-2.07,0-3.1,0-.17,0-.21-.04-.21-.21,0-3.65,0-7.29,0-10.94,0-.18.06-.22.23-.22.98,0,1.96,0,2.94,0,.18,0,.23.06.22.23,0,.44,0,.87,0,1.31.24-.27.43-.54.68-.77.75-.7,1.63-1.06,2.66-1.05.57,0,1.13.05,1.68.2,1.25.36,1.98,1.22,2.32,2.44.26.92.31,1.86.31,2.8,0,1.99,0,3.98,0,5.97Z"/>
  </g>
</svg>