<?xml version="1.0" encoding="UTF-8"?>
<svg id="Layer_2" data-name="Layer 2" xmlns="http://www.w3.org/2000/svg" viewBox="0 0 28.81 28.82">
  <defs>
    <style>
      .cls-1 {
        fill: #e5ded3;
      }
    </style>
  </defs>
  <g id="Capa_1" data-name="Capa 1">
    <path class="cls-1" d="M14.45,28.82C6.51,28.82,0,22.36,0,14.47,0,6.44,6.41,0,14.42,0c7.93,0,14.39,6.46,14.39,14.39,0,7.99-6.4,14.43-14.36,14.43ZM14.87,5.46c0,.08,0,.15,0,.22,0,4.07-.03,8.15-.02,12.22,0,1.27-.78,2.27-1.78,2.66-1.13.44-2.18.29-3.07-.56-.85-.82-1.09-1.84-.68-2.95.41-1.14,1.28-1.75,2.49-1.84.15-.01.3,0,.45,0,0-.01.02-.03.02-.05,0-.83,0-1.66,0-2.49,0-.12-.06-.15-.16-.14-.37.02-.75.02-1.11.08-4,.66-5.91,5.42-3.48,8.65,1.45,1.92,3.89,2.69,6.15,1.93,2.24-.75,3.73-2.84,3.73-5.24,0-2.34,0-4.68,0-7.01v-.32c.08.11.12.16.17.21,1.04,1.33,2.41,1.97,4.1,1.93.16,0,.21-.06.21-.22,0-.87,0-1.74,0-2.61,0-.06,0-.12,0-.17-2.52-.39-3.99-1.82-4.45-4.31h-2.56Z"/>
  </g>
</svg>