<?xml version="1.0" encoding="UTF-8"?>
<svg id="Layer_2" data-name="Layer 2" xmlns="http://www.w3.org/2000/svg" viewBox="0 0 27.87 27.65">
  <defs>
    <style>
      .cls-1 {
        fill: #e5ded3;
        fill-rule: evenodd;
      }
    </style>
  </defs>
  <g id="Capa_1" data-name="Capa 1">
    <path class="cls-1" d="M13.93,0C6.25,0,0,6.2,0,13.83c0,3.02.99,5.83,2.65,8.11l-1.74,5.13,5.35-1.7c2.2,1.44,4.84,2.29,7.67,2.29,7.68,0,13.93-6.2,13.93-13.82S21.62,0,13.93,0h0ZM22.3,17.61c-.1-.17-.37-.27-.78-.47-.41-.2-2.4-1.18-2.78-1.31-.37-.13-.64-.2-.91.2-.27.4-1.05,1.31-1.29,1.58-.24.27-.47.3-.88.1-.41-.2-1.72-.63-3.27-2-1.21-1.07-2.02-2.39-2.26-2.79-.24-.4-.02-.62.18-.82.18-.18.41-.47.61-.71.2-.24.27-.41.41-.67.14-.27.07-.5-.03-.71-.1-.2-.91-2.18-1.25-2.99-.34-.81-.68-.78-.91-.78s-.67.07-.67.07c0,0-.81.1-1.19.5-.37.4-1.42,1.38-1.42,3.36s1.45,3.9,1.66,4.17c.2.27,2.81,4.47,6.94,6.09,4.13,1.61,4.13,1.08,4.88,1.01.74-.07,2.4-.97,2.74-1.92.34-.94.34-1.75.24-1.92h0Z"/>
  </g>
</svg>