<?xml version="1.0" encoding="UTF-8"?>
<svg id="Layer_2" data-name="Layer 2" xmlns="http://www.w3.org/2000/svg" viewBox="0 0 341.68 35.23">
  <defs>
    <style>
      .cls-1 {
        fill: #e5ded3;
      }
    </style>
  </defs>
  <g id="Capa_1" data-name="Capa 1">
    <g>
      <g>
        <path class="cls-1" d="M138.99,34.61V.95h7.1v33.66h-7.1ZM147.33,16.4V.95h2.24c1.34,5.1,2.67,10.15,4.1,15.25,1.43,5.2,1.77,6.48,2.48,10.34.71-3.58,1.14-5.39,2.62-11.01,1.24-4.86,2.48-9.73,3.77-14.59h2.48v15.11l-5.05,18.54h-7.58l-5.05-18.21ZM166.26,34.61V.95h7.06v33.66h-7.06Z"/>
        <path class="cls-1" d="M194.67,35.23c-10.87-.19-16.07-8.96-16.07-17.64S183.23.52,194.67,0v6.39c-6.44.81-8.1,6.58-8.1,11.15,0,1.43.05,5.34,2.57,8.44,1.57,1.95,3.34,2.53,5.53,2.76v6.48ZM195.95,28.74c2.19-.28,4.05-.81,5.67-2.81,2.15-2.57,2.48-5.62,2.48-8.29,0-6.77-2.96-10.58-8.15-11.25V0c13.63.91,16.07,11.73,16.07,17.54,0,9.96-6.05,17.16-16.07,17.69v-6.48Z"/>
        <path class="cls-1" d="M217.5.95h7.3l20.07,33.66h-7.15L217.5.95ZM217.5,34.61V3.19l7.25,12.16.33,19.26h-7.58ZM237.33.95h7.53v31.18l-7.25-12.2-.29-18.97Z"/>
        <path class="cls-1" d="M252.2,34.61V.95h7.63v33.66h-7.63ZM261.02,20.64v-8.3l10.63-11.39h9.82l-15.4,15.25,16.16,18.4h-9.39l-11.82-13.97Z"/>
        <path class="cls-1" d="M285.05,34.61V.95h7.58v33.66h-7.58ZM293.92,7.1V.95h15.73v6.15h-15.73ZM293.92,19.88v-6.05h14.49v6.05h-14.49ZM293.92,34.61v-6.24h16.06v6.24h-16.06Z"/>
        <path class="cls-1" d="M311.41.95h8.44l10.44,21.07v12.59h-7.58v-12.59l-11.3-21.07ZM327.24,13.06l6.05-12.11h8.39l-10.63,19.78-3.81-7.67Z"/>
      </g>
      <path class="cls-1" d="M0,34.49L11.53.98h8.59l11.87,33.51h-8.5l-2.18-7.12h-9.4l1.81-6.12h5.74l-2.42-7.97c-.57-2.33-.67-2.7-1.14-4.94-.43,2.18-.52,2.61-1.09,4.75l-6.31,21.41H0Z"/>
      <path class="cls-1" d="M36.39,34.49V.98h7.55v33.51h-7.55ZM45.17,22.14v-6.08h3.47c2.61,0,6.83-.04,6.83-4.7,0-4.17-3.65-4.08-6.08-4.08h-4.22V.98h5.36c3.23.04,6.36.09,8.97,1.99,3.32,2.47,3.32,6.26,3.32,7.26,0,5.22-3.18,7.74-5.98,8.11.95.28,2.47.71,3.56,2.66.71,1.28.81,1.85,1.61,6.88.52,3.23,1.19,4.84,2.42,6.6h-7.97c-.57-.99-1.19-1.95-1.66-4.65-.24-1.19-.33-2.47-.57-3.65-.76-3.75-2.52-4.04-5.51-4.04h-3.56Z"/>
      <path class="cls-1" d="M90.74,11.98c-.51-3.28-3.65-5.78-7.21-5.78-6.51,0-8.96,5.54-8.96,11.32s2.45,11.05,8.96,11.05c4.44,0,6.94-3.01,7.49-7.39h7.03c-.74,8.27-6.38,13.49-14.51,13.49-10.16,0-16.22-7.63-16.22-17.15S73.37.1,83.53.1c7.21,0,13.36,4.25,14.24,11.88h-7.03Z"/>
      <g>
        <rect class="cls-1" x="112.48" y="13.78" width="11.29" height="6.21"/>
        <polygon class="cls-1" points="124.96 .89 124.96 13.78 124.96 13.78 124.96 19.99 124.96 19.99 124.96 34.49 132.35 34.49 132.35 .89 124.96 .89"/>
        <polygon class="cls-1" points="111.36 10.23 111.36 .89 103.97 .89 103.97 34.49 111.36 34.49 111.36 25.03 111.36 10.23"/>
      </g>
    </g>
  </g>
</svg>