<?xml version="1.0" encoding="UTF-8"?>
<svg id="Layer_2" data-name="Layer 2" xmlns="http://www.w3.org/2000/svg" viewBox="0 0 272.06 71.75">
  <defs>
    <style>
      .cls-1 {
        fill: #e5ded3;
      }
    </style>
  </defs>
  <g id="Capa_1" data-name="Capa 1">
    <g>
      <g>
        <path class="cls-1" d="M43.58,43.16h-6.1V12.16h11.51c7.07,0,11.03,4.31,11.03,10.14s-4.22,10.38-10.99,10.38h-5.45v10.47ZM48.42,27.34c3.46,0,5.47-1.88,5.47-4.96s-2.06-4.9-5.47-4.9h-4.84v9.85h4.84Z"/>
        <path class="cls-1" d="M61.8,27.65c0-9.29,6.99-15.93,16.01-15.93s15.95,6.65,15.95,15.9-6.88,15.97-15.99,15.97-15.97-6.76-15.97-15.95ZM87.46,27.67c0-6.16-4.09-10.51-9.69-10.51s-9.69,4.33-9.69,10.51,4.06,10.52,9.69,10.52,9.69-4.39,9.69-10.52Z"/>
        <path class="cls-1" d="M97.13,12.16h11.37c6.82,0,10.96,4.08,10.96,9.79,0,4.24-2.27,7.54-6.03,9.04l7.39,12.16h-7.28l-6.37-11.29h-3.95v11.29h-6.09V12.16ZM107.88,26.54c3.38,0,5.4-1.62,5.4-4.51s-2.21-4.55-5.4-4.55h-4.66v9.05h4.66Z"/>
        <path class="cls-1" d="M145.52,17.57h-9.05v25.59h-6.22v-25.59h-9.04v-5.41h24.3v5.41Z"/>
        <path class="cls-1" d="M148.05,12.16h6.16v25.62h13.35v5.38h-19.52V12.16Z"/>
        <path class="cls-1" d="M189.43,35.87h-11.39l-2.39,7.29h-6.38l11.04-31h7.07l11.19,31h-6.71l-2.43-7.29ZM187.79,30.74l-4.09-12.15-4.04,12.15h8.13Z"/>
        <path class="cls-1" d="M206.46,43.16h-5.91V12.16h6.6l13.06,21.28-.1-21.28h5.89v31h-6.71l-12.93-21.03.1,21.03Z"/>
        <path class="cls-1" d="M230.37,43.16V12.16h10.95c9.73,0,14.96,6.83,14.96,15.5s-5.4,15.49-15,15.49h-10.91ZM240.57,37.77c6.42,0,9.5-3.1,9.5-10.05s-3.32-10.16-9.4-10.16h-4.15v20.22h4.04Z"/>
      </g>
      <path class="cls-1" d="M271.76,55.52c.05-.08.1-.16.14-.25,0-.02.02-.04.03-.06.04-.09.07-.19.09-.28,0-.02,0-.05.01-.07.02-.1.03-.21.03-.32V1.78c0-.98-.8-1.78-1.78-1.78H23.78c-.11,0-.21.02-.32.03-.04,0-.07.02-.1.03-.07.02-.14.04-.21.06-.03.02-.07.03-.1.04-.07.03-.14.07-.2.11-.02.02-.05.03-.07.04,0,0,0,0-.01,0L.76,15.76c-.48.33-.76.87-.76,1.45v52.76s0,0,0,.01c0,.08.01.16.02.24,0,.04,0,.07.02.11,0,.05.03.11.05.16.02.06.03.12.05.17.02.03.04.06.05.09.03.07.07.15.12.22,0,0,0,0,0,.01.06.08.12.15.18.22.01.02.03.03.05.04.07.07.15.14.24.2h0c.08.05.17.1.27.14.02,0,.04.02.06.02.1.04.19.07.29.09.02,0,.04,0,.06.01.11.02.21.03.32.03h246.52c.36,0,.72-.11,1.02-.32l21.99-15.44c.07-.05.14-.11.21-.18.02-.01.03-.03.05-.05.07-.07.14-.15.19-.23,0,0,0-.01.01-.02ZM268.51,52.76H25.56V3.56h242.95v49.21ZM22,5.2v48.42l-18.44,12.94V18.14L22,5.2ZM247.74,68.2H7.41l16.93-11.88h240.32l-16.92,11.88Z"/>
    </g>
  </g>
</svg>