<svg width="79" height="79" viewBox="0 0 79 79" fill="none" xmlns="http://www.w3.org/2000/svg">
<path d="M39.43 78.4599C60.8421 78.4599 78.2 61.102 78.2 39.6899C78.2 18.2778 60.8421 0.919922 39.43 0.919922C18.0179 0.919922 0.660004 18.2778 0.660004 39.6899C0.660004 61.102 18.0179 78.4599 39.43 78.4599Z" fill="#313829"/>
<path d="M20.96 58.3301C21.77 55.3101 22.57 52.3201 23.38 49.3401C23.45 49.0901 23.44 48.9001 23.31 48.6701C22.15 46.6001 21.41 44.3801 21.13 42.0301C20.72 38.6101 21.17 35.3101 22.57 32.1501C23.76 29.4601 25.49 27.1801 27.75 25.3001C29.46 23.8701 31.38 22.7901 33.49 22.0501C34.85 21.5701 36.25 21.2501 37.67 21.1001C39.09 20.9501 40.51 20.9701 41.93 21.1401C44.08 21.4001 46.12 22.0101 48.04 22.9801C50.76 24.3601 53.02 26.3001 54.81 28.7801C56.36 30.9301 57.42 33.3001 57.92 35.8901C58.95 41.1901 57.92 46.0801 54.81 50.5001C52.44 53.8401 49.27 56.1401 45.38 57.4201C42.66 58.3101 39.87 58.5401 37.03 58.1301C34.95 57.8301 32.97 57.2101 31.11 56.2401C30.83 56.0901 30.58 56.0701 30.29 56.1401C27.23 56.8701 24.17 57.6001 21.11 58.3201C21.07 58.3201 21.03 58.3201 20.96 58.3201V58.3301ZM44.75 48.6101C46.14 48.6201 47.08 48.1301 48.06 47.3001C48.91 46.5901 49.06 45.5901 49.11 44.5601C49.13 44.2001 48.99 43.9601 48.66 43.8101C48.11 43.5601 47.57 43.2701 47.02 43.0101C46.28 42.6701 45.55 42.3201 44.79 42.0101C44.36 41.8301 44.22 41.9101 43.94 42.2601C43.48 42.8301 43.02 43.4001 42.55 43.9601C42.19 44.4001 41.98 44.4401 41.47 44.2301C38.77 43.1501 36.69 41.3401 35.2 38.8501C34.87 38.3101 34.9 38.1801 35.32 37.6801C35.7 37.2301 36.04 36.7401 36.38 36.2601C36.6 35.9501 36.56 35.6201 36.41 35.2801C36.12 34.6201 35.86 33.9501 35.59 33.2901C35.38 32.7801 35.17 32.2701 34.94 31.7701C34.72 31.2601 34.33 31.0001 33.76 31.0301C33.53 31.0401 33.29 31.0301 33.05 31.0301C32.66 31.0301 32.31 31.1501 32.02 31.4001C30.63 32.6301 30.01 34.1701 30.18 36.0201C30.28 37.0201 30.61 37.9701 31.12 38.8301C31.6 39.6401 32.11 40.4301 32.66 41.1901C34.1 43.1801 35.79 44.9101 37.86 46.2501C39.16 47.0901 40.6 47.6201 42.06 48.0901C42.93 48.3701 43.81 48.6101 44.73 48.5901L44.75 48.6101Z" fill="#EFDFD2"/>
</svg>
